<svg xmlns="http://www.w3.org/2000/svg" viewBox="0 0 280 280" height="280" width="280"><g><svg viewBox="0 0 280 280" height="280" width="280"><g><svg viewBox="0 0 280 280" height="280" width="280"><g id="textblocktransform"><svg viewBox="0 0 280 280" height="280" width="280" id="textblock"><g><svg viewBox="0 0 280 280" height="280" width="280"><g transform="matrix(1,0,0,1,57.50420886156945,57.50420886156945)"><svg viewBox="0 0 164.9915822768611 164.9915822768611" height="164.9915822768611" width="164.9915822768611"><g id="icon-0"><circle r="82.49579113843055" cx="82.49579113843055" cy="82.49579113843055" fill="#000000" data-fill-palette-color="accent"/><svg xmlns="http://www.w3.org/2000/svg" xml:space="preserve" viewBox="4.999023549245447 4.999349531666914 87.79861445487072 89.9006504683331" x="24.748737341529164" y="24.74873734152917" height="115.49410759380275" width="115.49410759380275" class="icon-jxe-0" data-fill-palette-color="quaternary" id="jxe-0"><path d="M92.013 47.005L77.3 32.29V18.95a5.504 5.504 0 0 0-5.499-5.496h-5.636a5.5 5.5 0 0 0-4.828 2.876L50.791 5.784a2.677 2.677 0 0 0-3.787 0L5.783 47.005a2.67 2.67 0 0 0-0.578 2.918 2.67 2.67 0 0 0 2.472 1.653h10.722V82.42c0 6.88 5.598 12.48 12.479 12.48h36.757c6.881 0 12.484-5.601 12.484-12.48V51.576H90.12a2.68 2.68 0 0 0 2.477-1.653 2.69 2.69 0 0 0-0.584-2.918m-24.379 42.54H30.877a7.13 7.13 0 0 1-7.123-7.125V50.297q0.396-0.687 0.98-1.25h49.043c0.391 0.375 0.715 0.793 0.985 1.25V82.42c0.001 3.93-3.198 7.125-7.128 7.125m9.804-43.324c-0.011 0-0.027 0.009-0.039 0.009h-56.28c-0.017 0-0.027-0.009-0.044-0.009h-6.933l34.756-34.757L61.453 24.02a2.68 2.68 0 0 0 2.917 0.581 2.68 2.68 0 0 0 1.657-2.475l0.138-3.316 5.779 0.141v14.448c0 0.71 0.28 1.39 0.781 1.894l10.932 10.929h-6.219z" fill="#89939e" data-fill-palette-color="quaternary"/><path d="M55.255 55.727H43.262a5.14 5.14 0 0 0-5.136 5.136v11.993a5.14 5.14 0 0 0 5.136 5.136h11.993a5.144 5.144 0 0 0 5.136-5.136V60.862a5.143 5.143 0 0 0-5.136-5.135m0.859 17.128a0.86 0.86 0 0 1-0.859 0.861H43.262a0.86 0.86 0 0 1-0.864-0.861V60.862a0.86 0.86 0 0 1 0.864-0.861h11.993a0.86 0.86 0 0 1 0.859 0.861z" fill="#89939e" data-fill-palette-color="quaternary"/></svg></g></svg></g><g id="text-0"><path d="M24.932 89.337l-10.28-3.913c-0.597-0.23-1.264 0.538-2.001 2.305v0l-0.648-0.153c0.41-0.899 0.876-2.027 1.398-3.384v0c1.051-2.731 1.799-4.879 2.244-6.444v0l0.606 0.234c0 0-0.09 0.522-0.271 1.567v0c-0.168 1.085-0.107 1.698 0.182 1.838v0c0.231 0.124 1.55 0.65 3.958 1.576v0c11.386 4.381 17.53 6.652 18.432 6.814v0c0.665 0.127 1.382-0.807 2.15-2.804v0l0.065-0.168 0.551 0.126c-0.604 1.253-1.311 2.935-2.123 5.044v0c-0.927 2.408-1.576 4.301-1.949 5.678v0l-0.676-0.303c0.79-2.053 0.793-3.231 0.009-3.532v0l-10.714-4.122-4.356 11.32 10.714 4.123c0.784 0.302 1.572-0.577 2.365-2.637v0l0.658 0.21c-0.358 0.855-0.771 1.893-1.241 3.112v0c-1.029 2.675-1.886 5.06-2.57 7.154v0l-0.644-0.248c0 0 0.02-0.053 0.061-0.158v0c0.656-1.705 0.699-2.745 0.13-3.122v0c-0.304-0.174-2.76-1.18-7.368-3.017-4.601-1.835-8.432-3.341-11.493-4.519v0c-2.078-0.8-3.204-1.215-3.378-1.246v0c-0.33-0.034-0.765 0.327-1.306 1.083v0l-0.742 1.065-0.606-0.234c0.603-1.232 1.284-2.835 2.042-4.807v0c0.792-2.059 1.357-3.692 1.692-4.899v0l0.812 0.313c-0.665 2.137-0.761 3.314-0.287 3.532v0l10.228 3.936z" fill="#000000" data-fill-palette-color="primary"/><path d="M55.092 67.698v0c0.995-1.21 1.21-2.609 0.643-4.198-0.572-1.593-1.908-3.253-4.008-4.98v0c-1.745-1.436-3.568-2.336-5.47-2.701-1.896-0.36-3.323 0.041-4.28 1.205v0c-0.644 0.782-0.983 1.63-1.018 2.543-0.035 0.903 0.204 1.782 0.719 2.637 0.519 0.859 1.086 1.644 1.699 2.356 0.614 0.712 1.312 1.39 2.095 2.034v0c1.858 1.529 3.664 2.414 5.416 2.656 1.752 0.242 3.153-0.276 4.204-1.552zM41.057 56.773v0c1.639-1.992 3.725-3.112 6.259-3.359 2.524-0.246 4.682 0.369 6.473 1.843v0c2.172 1.787 3.524 3.875 4.055 6.262 0.531 2.387-0.134 4.711-1.993 6.971v0c-3.867 4.7-8.364 4.941-13.492 0.723v0c-1.992-1.639-3.067-3.685-3.225-6.137-0.154-2.457 0.487-4.559 1.923-6.303z" fill="#000000" data-fill-palette-color="primary"/><path d="M71.556 31.522v0c2.528-1.591 4.823-1.374 6.886 0.652v0c-0.006-1.099 0.033-1.974 0.118-2.627 0.086-0.652 0.318-1.354 0.696-2.104 0.384-0.754 0.957-1.37 1.719-1.85v0c3.238-2.038 6.085-1.108 8.539 2.79v0l4.746 7.54c0.202 0.322 0.493 0.458 0.871 0.409 0.379-0.049 0.811-0.219 1.298-0.51 0.487-0.291 0.785-0.455 0.895-0.493v0l0.373 0.593c-0.757 0.374-1.92 1.055-3.488 2.042v0c-1.693 1.065-3.167 2.045-4.424 2.938v0l-0.373-0.592c1.527-1.166 2.175-1.932 1.944-2.299v0c0.028-0.018-1.717-2.822-5.237-8.413v0c-0.849-1.348-1.646-2.202-2.391-2.56-0.736-0.356-1.581-0.234-2.534 0.367v0c-0.688 0.433-1.204 1.085-1.547 1.954-0.346 0.864-0.519 1.622-0.517 2.275v0l-0.012 0.976 5.908 9.386c0.124 0.197 0.529 0.183 1.213-0.044 0.679-0.223 1.282-0.484 1.81-0.784v0l0.373 0.592c-1.073 0.573-2.433 1.378-4.08 2.415v0c-1.788 1.126-3.187 2.057-4.196 2.795v0l-0.373-0.593c1.573-1.093 2.221-1.859 1.944-2.299v0l-5.306-8.428c-0.863-1.371-1.619-2.246-2.267-2.626-0.648-0.38-1.441-0.275-2.377 0.315v0c-0.609 0.384-1.094 1.177-1.456 2.381-0.355 1.2-0.396 2.4-0.122 3.598v0l5.418 8.606c0.277 0.44 1.285 0.164 3.023-0.828v0l0.373 0.593c-1.417 0.79-2.91 1.678-4.478 2.665v0c-1.399 0.881-2.519 1.636-3.358 2.267v0l-0.373-0.592c0.413-0.22 0.886-0.558 1.419-1.012 0.53-0.46 0.679-0.873 0.449-1.239v0c-1.974-3.311-3.539-5.886-4.697-7.725v0c-1.282-2.037-2.31-3.583-3.086-4.639v0c-0.193-0.257-0.73-0.108-1.609 0.446v0c-0.322 0.202-0.646 0.426-0.972 0.671v0l-0.373-0.592c0.289-0.142 0.58-0.306 0.873-0.491v0c1.523-0.959 2.734-2.083 3.631-3.372v0l2.959 3.631c0.021-0.454 0.029-0.905 0.025-1.35-0.007-0.437 0.029-0.893 0.108-1.368 0.075-0.481 0.185-0.92 0.328-1.318 0.144-0.398 0.358-0.789 0.644-1.173 0.291-0.388 0.646-0.714 1.063-0.976z" fill="#000000" data-fill-palette-color="primary"/><path d="M112.245 21.061v0l7.582-1.913c-0.092-0.485-0.191-0.938-0.294-1.359v0c-0.216-0.874-0.458-1.562-0.726-2.066v0c-0.449-0.844-1.09-1.468-1.925-1.873-0.828-0.407-1.75-0.484-2.767-0.234v0c-1.036 0.256-1.705 1.049-2.008 2.381-0.298 1.323-0.252 3.011 0.138 5.064zM123.74 18.851l-11.385 2.863 0.228 0.922c0.5 2.026 1.324 3.762 2.471 5.21 1.155 1.452 2.435 2.005 3.839 1.658v0c1.631-0.403 2.807-1.201 3.528-2.396 0.721-1.194 1.135-2.357 1.24-3.489v0l1.393 0.552c-0.157 1.172-0.717 2.409-1.679 3.711-0.964 1.296-2.43 2.186-4.398 2.672v0c-2.395 0.591-4.573 0.336-6.534-0.766-1.953-1.097-3.281-3.066-3.982-5.907v0c-0.411-1.663-0.495-3.187-0.253-4.573 0.234-1.39 0.728-2.528 1.484-3.415 0.75-0.885 1.549-1.598 2.397-2.137 0.855-0.541 1.775-0.933 2.759-1.176v0c1.521-0.376 3.037-0.314 4.547 0.186 1.509 0.493 2.686 1.603 3.531 3.33v0c0.249 0.536 0.443 1.085 0.582 1.649v0c0.077 0.311 0.154 0.68 0.232 1.106z" fill="#000000" data-fill-palette-color="primary"/><path d="M160.364 13.946l0.615-10.982c0.038-0.639-0.896-1.042-2.803-1.21v0l-0.05-0.664c0.981 0.119 2.197 0.221 3.648 0.308v0c2.921 0.174 5.195 0.236 6.82 0.187v0l-0.038 0.648c0 0-0.525 0.072-1.576 0.217v0c-1.085 0.169-1.651 0.412-1.696 0.73v0c-0.049 0.258-0.15 1.674-0.304 4.25v0c-0.727 12.178-1.03 18.721-0.911 19.629v0c0.08 0.673 1.188 1.073 3.325 1.2v0l0.179 0.011 0.047 0.564c-1.377-0.196-3.194-0.361-5.45-0.496v0c-2.575-0.154-4.576-0.2-6.002-0.137v0l0.084-0.737c2.196 0.131 3.319-0.223 3.369-1.061v0l0.683-11.459-12.108-0.722-0.683 11.459c-0.05 0.838 1.026 1.323 3.229 1.455v0l-0.001 0.691c-0.923-0.082-2.037-0.162-3.342-0.24v0c-2.861-0.171-5.394-0.265-7.596-0.283v0l0.041-0.688c0 0 0.057 0.003 0.17 0.01v0c1.823 0.109 2.828-0.165 3.014-0.822v0c0.074-0.343 0.288-2.988 0.643-7.935 0.355-4.941 0.63-9.048 0.826-12.323v0c0.133-2.223 0.187-3.421 0.164-3.596v0c-0.067-0.325-0.543-0.63-1.428-0.917v0l-1.239-0.384 0.039-0.649c1.357 0.201 3.09 0.365 5.2 0.491v0c2.203 0.131 3.93 0.174 5.181 0.128v0l-0.052 0.869c-2.238 0.013-3.389 0.279-3.453 0.795v0l-0.653 10.941z" fill="#000000" data-fill-palette-color="primary"/><path d="M198.954 36.178v0l0.458 0.604c-1.226 2.036-2.956 2.607-5.19 1.711v0c-0.91-0.365-1.473-0.939-1.69-1.723-0.215-0.79-0.195-1.619 0.06-2.486v0c-0.786 0.403-1.375 0.68-1.766 0.832-0.394 0.158-1.075 0.316-2.043 0.473-0.968 0.157-1.842 0.08-2.622-0.233v0c-1.343-0.539-2.348-1.38-3.017-2.524-0.665-1.136-0.667-2.527-0.007-4.173v0c0.29-0.724 0.698-1.293 1.224-1.707 0.525-0.414 1.13-0.678 1.815-0.791 0.687-0.119 1.354-0.171 2.002-0.156 0.656 0.012 1.377 0.121 2.163 0.329 0.795 0.204 1.447 0.394 1.958 0.57 0.505 0.174 1.063 0.376 1.674 0.607 0.614 0.225 0.945 0.347 0.995 0.367v0c0.08 0.032 0.519-0.945 1.316-2.931v0c1.025-2.555 0.368-4.302-1.971-5.24v0c-0.804-0.323-1.52-0.409-2.148-0.258-0.624 0.159-1.085 0.459-1.384 0.899v0c0.78 0.313 0.932 1.06 0.458 2.242v0c-0.293 0.73-0.743 1.153-1.349 1.268-0.613 0.113-1.148 0.078-1.606-0.105v0c-0.507-0.204-0.868-0.621-1.081-1.253-0.217-0.64-0.213-1.242 0.012-1.805v0c0.4-0.996 1.422-1.71 3.068-2.141v0c1.334-0.37 2.901-0.194 4.701 0.528v0c1.695 0.68 2.991 1.81 3.887 3.391 0.898 1.574 0.986 3.262 0.264 5.062v0c-0.357 0.891-0.879 2.118-1.563 3.682-0.694 1.568-1.181 2.701-1.461 3.401v0c-0.722 1.8-0.661 2.856 0.184 3.166v0c0.483 0.194 0.915 0.162 1.298-0.094 0.38-0.25 0.834-0.754 1.361-1.512zM192.831 33.205v0l1.91-4.761c-0.973-0.297-1.875-0.555-2.706-0.773-0.829-0.225-1.568-0.352-2.217-0.383-0.645-0.022-1.225 0.144-1.741 0.498-0.515 0.354-0.947 0.963-1.294 1.829v0c-0.464 1.157-0.516 2.12-0.157 2.889 0.368 0.765 0.995 1.326 1.88 1.681v0c1.398 0.561 2.84 0.234 4.325-0.98z" fill="#000000" data-fill-palette-color="primary"/><path d="M226.366 38.26v0l-0.429 0.427c-1.242-0.954-2.122-1.096-2.637-0.424v0c-0.106 0.137-0.193 0.322-0.262 0.555v0l-3.32 12.038 10.457-6.557c0.207-0.127 0.373-0.272 0.499-0.436v0c0.195-0.254 0.232-0.553 0.111-0.899-0.116-0.341-0.275-0.61-0.477-0.807-0.201-0.188-0.486-0.445-0.857-0.772v0l0.436-0.421c0.545 0.528 1.38 1.224 2.507 2.089v0c1.216 0.934 2.22 1.651 3.013 2.15v0l-0.437 0.421c-0.782-0.601-1.448-0.889-1.996-0.865-0.544 0.019-1.241 0.27-2.091 0.753v0l-13.27 8.216-1.824-1.401 3.919-16.168c0.173-0.707 0.144-1.298-0.089-1.771-0.239-0.477-0.741-1.049-1.509-1.713v0l0.429-0.427c2.215 1.877 3.737 3.135 4.567 3.772v0c1.195 0.918 2.282 1.664 3.26 2.24z" fill="#000000" data-fill-palette-color="primary"/><path d="M244.834 66.423v0l4.74 6.219c0.41-0.276 0.788-0.544 1.134-0.805v0c0.719-0.542 1.256-1.035 1.614-1.481v0c0.599-0.744 0.921-1.58 0.965-2.506 0.048-0.921-0.243-1.8-0.873-2.636v0c-0.642-0.852-1.635-1.155-2.978-0.91-1.334 0.246-2.868 0.952-4.602 2.119zM251.386 76.123l-7.109-9.343-0.759 0.572c-1.666 1.256-2.939 2.697-3.818 4.321-0.881 1.633-0.886 3.027-0.014 4.181v0c1.012 1.341 2.208 2.109 3.59 2.303 1.382 0.194 2.614 0.116 3.695-0.232v0l0.04 1.497c-1.139 0.316-2.496 0.288-4.072-0.085-1.57-0.377-2.966-1.375-4.186-2.992v0c-1.485-1.969-2.107-4.072-1.865-6.309 0.241-2.227 1.529-4.222 3.865-5.984v0c1.368-1.032 2.736-1.709 4.105-2.031 1.37-0.332 2.611-0.324 3.724 0.022 1.109 0.341 2.078 0.796 2.907 1.364 0.834 0.574 1.555 1.265 2.166 2.074v0c0.943 1.251 1.483 2.669 1.617 4.253 0.14 1.581-0.418 3.1-1.673 4.557v0c-0.395 0.44-0.824 0.834-1.287 1.183v0c-0.255 0.193-0.564 0.409-0.926 0.649z" fill="#000000" data-fill-palette-color="primary"/><path d="M265.46 88.748l0.643-0.251c0.069 0.252 0.157 0.515 0.263 0.789v0c0.587 1.51 1.477 2.998 2.67 4.465v0l-3.894 1.879c3.259 0.693 5.279 2.006 6.061 3.942v0c0.358 0.92 0.526 1.795 0.505 2.625-0.012 0.834-0.163 1.54-0.453 2.118-0.29 0.578-0.684 1.11-1.182 1.596-0.489 0.49-0.979 0.885-1.471 1.184-0.492 0.299-1.008 0.553-1.548 0.763v0l-8.304 3.229c-0.273 0.106-0.396 0.526-0.369 1.259 0.024 0.742 0.13 1.355 0.318 1.84v0l-0.652 0.253c-0.955-2.769-1.558-4.476-1.809-5.122v0c-0.536-1.379-1.063-2.577-1.579-3.592v0l0.652-0.254c0.235 0.531 0.582 1.065 1.041 1.602 0.453 0.539 0.803 0.76 1.052 0.664v0c0.012 0.031 2.758-1.019 8.239-3.15v0c1.485-0.577 2.585-1.309 3.298-2.194 0.714-0.886 0.866-1.857 0.456-2.913v0c-0.336-0.864-1.118-1.633-2.346-2.307-1.225-0.668-2.517-0.956-3.876-0.864v0l-9.04 3.515c-0.429 0.167-0.357 1.226 0.216 3.178v0l-0.653 0.253c-0.349-1.137-0.881-2.626-1.596-4.464v0c-0.681-1.752-1.268-3.141-1.759-4.166v0l0.652-0.254c0.21 0.541 0.533 1.059 0.97 1.555 0.445 0.499 0.804 0.696 1.076 0.59v0c1.668-0.584 3.854-1.402 6.557-2.453v0c2.566-0.998 4.661-1.845 6.286-2.541v0c0.067-0.62-0.075-1.544-0.424-2.774z" fill="#000000" data-fill-palette-color="primary"/><path d="M15.058 144.979c0-1.723 1.397-3.119 3.119-3.12 1.723 0 3.119 1.397 3.119 3.12 0 1.723-1.397 3.119-3.119 3.119-1.723 0-3.119-1.397-3.119-3.119z" fill="#000000" data-fill-palette-color="primary"/><path d="M267.051 144.979c0-1.723 1.397-3.119 3.12-3.12 1.723 0 3.119 1.397 3.119 3.12 0 1.723-1.397 3.119-3.119 3.119-1.723 0-3.119-1.397-3.12-3.119z" fill="#000000" data-fill-palette-color="primary"/></g><g id="text-1"><path d="M35.256 196.002l9.973-3.846c0.579-0.221 0.566-1.211-0.041-2.971v0l0.56-0.299c0.29 0.91 0.687 2.025 1.191 3.346v0c1.014 2.66 1.867 4.7 2.558 6.119v0l-0.589 0.225c0 0-0.274-0.438-0.821-1.313v0c-0.582-0.891-1.022-1.294-1.318-1.21v0c-0.249 0.059-1.547 0.536-3.895 1.432v0c-11.081 4.226-16.999 6.575-17.753 7.048v0c-0.564 0.336-0.475 1.476 0.266 3.419v0l0.06 0.159-0.482 0.28c-0.376-1.305-0.956-2.985-1.74-5.04v0c-0.893-2.342-1.651-4.133-2.273-5.373v0l0.677-0.215c0.762 1.999 1.527 2.853 2.293 2.561v0l10.427-3.977-4.2-11.015-10.427 3.976c-0.766 0.292-0.768 1.438-0.006 3.437v0l-0.608 0.286c-0.298-0.857-0.673-1.877-1.124-3.06v0c-0.993-2.604-1.925-4.888-2.796-6.854v0l0.636-0.242c0 0 0.02 0.053 0.06 0.159v0c0.634 1.663 1.278 2.445 1.933 2.345v0c0.337-0.071 2.764-0.936 7.283-2.595 4.522-1.668 8.272-3.069 11.249-4.205v0c2.024-0.772 3.113-1.201 3.266-1.288v0c0.256-0.19 0.334-0.734 0.234-1.63v0l-0.154-1.247 0.588-0.224c0.364 1.274 0.914 2.873 1.648 4.797v0c0.762 1.999 1.413 3.546 1.951 4.639v0l-0.794 0.303c-0.905-1.981-1.599-2.893-2.082-2.737v0l-9.951 3.794z" fill="#000000" data-fill-palette-color="primary"/><path d="M42.174 232.299v0c0.962 1.177 2.256 1.647 3.881 1.412 1.625-0.235 3.464-1.193 5.518-2.873v0c1.698-1.389 2.899-2.957 3.605-4.705 0.705-1.739 0.593-3.176-0.336-4.312v0c-0.625-0.764-1.365-1.248-2.221-1.452-0.865-0.205-1.753-0.142-2.662 0.188-0.914 0.325-1.77 0.716-2.569 1.171-0.798 0.446-1.579 0.981-2.343 1.606v0c-1.811 1.481-2.995 3.035-3.55 4.662-0.565 1.625-0.34 3.06 0.677 4.303zM55.259 220.989v0c1.591 1.945 2.261 4.149 2.01 6.611-0.246 2.458-1.241 4.4-2.985 5.826v0c-2.116 1.73-4.363 2.621-6.742 2.672-2.379 0.051-4.469-1.026-6.271-3.229v0c-3.744-4.577-3.118-8.908 1.877-12.994v0c1.94-1.587 4.095-2.221 6.466-1.903 2.375 0.314 4.257 1.319 5.645 3.017z" fill="#000000" data-fill-palette-color="primary"/><path d="M80.773 243.276v0c2.45 1.551 3.22 3.656 2.31 6.316v0c0.955-0.461 1.738-0.789 2.352-0.985 0.607-0.199 1.321-0.292 2.14-0.278 0.822 0.023 1.601 0.268 2.34 0.736v0c3.143 1.99 3.516 4.877 1.119 8.662v0l-4.633 7.316c-0.196 0.31-0.193 0.623 0.009 0.94 0.205 0.311 0.535 0.619 0.99 0.923 0.455 0.304 0.723 0.497 0.804 0.58v0l-0.364 0.575c-0.641-0.508-1.724-1.246-3.251-2.212v0c-1.639-1.038-3.112-1.919-4.42-2.645v0l0.364-0.575c1.661 0.854 2.603 1.104 2.828 0.749v0c0.023 0.014 1.753-2.693 5.19-8.123v0c0.831-1.312 1.246-2.367 1.246-3.164 0.005-0.794-0.457-1.485-1.386-2.073v0c-0.665-0.421-1.449-0.602-2.354-0.544-0.905 0.058-1.644 0.222-2.216 0.491v0l-0.856 0.417-5.766 9.107c-0.118 0.186 0.062 0.532 0.537 1.039 0.48 0.501 0.963 0.921 1.45 1.261v0l-0.363 0.575c-0.951-0.704-2.226-1.563-3.826-2.576v0c-1.735-1.098-3.138-1.936-4.209-2.512v0l0.364-0.574c1.614 0.927 2.557 1.177 2.828 0.749v0l5.178-8.178c0.845-1.335 1.297-2.366 1.356-3.095 0.064-0.725-0.357-1.374-1.264-1.948v0c-0.597-0.378-1.495-0.473-2.695-0.286-1.2 0.187-2.271 0.653-3.215 1.396v0l-5.291 8.356c-0.271 0.428 0.394 1.197 1.996 2.305v0l-0.364 0.575c-1.288-0.918-2.693-1.859-4.213-2.822v0c-1.357-0.859-2.487-1.524-3.39-1.993v0l0.364-0.574c0.36 0.267 0.853 0.54 1.481 0.819 0.622 0.276 1.046 0.236 1.27-0.118v0c2.081-3.125 3.687-5.58 4.818-7.366v0c1.248-1.971 2.176-3.518 2.784-4.64v0c0.142-0.273-0.216-0.681-1.072-1.223v0c-0.31-0.196-0.638-0.388-0.984-0.576v0l0.358-0.566c0.245 0.187 0.511 0.371 0.798 0.553v0c1.476 0.934 2.966 1.527 4.472 1.778v0l-1.953 4.113c0.41-0.174 0.809-0.356 1.197-0.544 0.388-0.189 0.807-0.345 1.256-0.471 0.448-0.134 0.878-0.221 1.29-0.26 0.406-0.043 0.841-0.02 1.305 0.069 0.455 0.091 0.886 0.265 1.291 0.521z" fill="#000000" data-fill-palette-color="primary"/><path d="M112.675 266.047v0l7.393 1.803c0.142-0.459 0.264-0.893 0.366-1.3v0c0.211-0.847 0.314-1.547 0.307-2.098v0c0-0.935-0.264-1.763-0.792-2.486-0.532-0.731-1.29-1.218-2.273-1.463v0c-1.009-0.252-1.945 0.126-2.808 1.134-0.861 1.001-1.592 2.471-2.193 4.41zM123.561 269.381l-11.079-2.723-0.225 0.902c-0.491 1.966-0.571 3.832-0.243 5.598 0.329 1.765 1.176 2.818 2.541 3.159v0c1.591 0.397 2.965 0.248 4.12-0.446 1.164-0.699 2.049-1.509 2.657-2.429v0l0.942 1.101c-0.667 0.94-1.711 1.748-3.13 2.424-1.419 0.677-3.086 0.776-5.001 0.298v0c-2.322-0.579-4.075-1.786-5.26-3.621-1.178-1.833-1.422-4.13-0.733-6.892v0c0.402-1.611 1.02-2.961 1.856-4.051 0.834-1.084 1.777-1.834 2.829-2.252 1.046-0.419 2.06-0.668 3.041-0.746 0.973-0.073 1.939 0.01 2.896 0.249v0c1.475 0.368 2.751 1.105 3.828 2.212 1.069 1.112 1.576 2.606 1.52 4.481v0c-0.032 0.569-0.117 1.129-0.253 1.679v0c-0.074 0.298-0.176 0.65-0.306 1.057z" fill="#000000" data-fill-palette-color="primary"/><path d="M159.258 264.752l-0.66-10.669c-0.036-0.619-0.984-0.904-2.844-0.857v0l-0.116-0.624c0.955-0.002 2.138-0.044 3.548-0.126v0c2.842-0.165 5.044-0.363 6.607-0.594v0l0.036 0.629c0 0-0.5 0.129-1.5 0.388v0c-1.025 0.287-1.542 0.584-1.551 0.891v0c-0.019 0.255 0.045 1.637 0.191 4.146v0c0.687 11.84 1.143 18.19 1.367 19.052v0c0.151 0.639 1.264 0.898 3.34 0.778v0l0.17-0.01 0.121 0.544c-1.358-0.035-3.134 0.012-5.33 0.139v0c-2.502 0.145-4.438 0.328-5.808 0.547v0l-0.001-0.711c2.136-0.124 3.181-0.595 3.133-1.414v0l-0.647-11.14-11.769 0.683 0.646 11.141c0.048 0.819 1.139 1.166 3.276 1.041v0l0.089 0.666c-0.907 0.026-1.992 0.076-3.257 0.149v0c-2.782 0.162-5.241 0.361-7.377 0.599v0l-0.04-0.679c0 0 0.057-0.003 0.17-0.01v0c1.777-0.103 2.717-0.482 2.819-1.135v0c0.034-0.343-0.059-2.918-0.278-7.726-0.226-4.815-0.432-8.813-0.617-11.994v0c-0.126-2.163-0.207-3.33-0.243-3.502v0c-0.104-0.301-0.599-0.54-1.484-0.715v0l-1.235-0.229-0.037-0.629c1.324 0.037 3.015-0.005 5.071-0.124v0c2.136-0.124 3.807-0.278 5.012-0.461v0l0.049 0.848c-2.161 0.266-3.241 0.652-3.238 1.16v0l0.617 10.632z" fill="#000000" data-fill-palette-color="primary"/><path d="M202.197 263.181v0l0.726 0.119c0.508 2.259-0.325 3.823-2.498 4.691v0c-0.885 0.354-1.669 0.322-2.352-0.094-0.681-0.41-1.223-1.005-1.628-1.784v0c-0.278 0.814-0.504 1.407-0.679 1.779-0.169 0.369-0.542 0.934-1.12 1.696-0.572 0.76-1.239 1.292-2.001 1.596v0c-1.306 0.522-2.576 0.605-3.808 0.251-1.235-0.361-2.171-1.337-2.806-2.928v0c-0.284-0.712-0.382-1.387-0.293-2.026 0.093-0.647 0.34-1.241 0.742-1.782 0.41-0.537 0.848-1.021 1.315-1.451 0.467-0.431 1.047-0.838 1.741-1.223 0.693-0.385 1.277-0.686 1.749-0.904 0.479-0.22 1.01-0.454 1.594-0.701 0.583-0.247 0.9-0.381 0.949-0.4v0c0.08-0.032-0.266-1.017-1.04-2.955v0c-0.994-2.489-2.63-3.278-4.909-2.368v0c-0.786 0.314-1.347 0.735-1.681 1.263-0.335 0.528-0.46 1.049-0.377 1.562v0c0.761-0.304 1.372 0.12 1.832 1.271v0c0.284 0.712 0.251 1.31-0.101 1.795-0.349 0.491-0.747 0.826-1.193 1.004v0c-0.495 0.198-1.032 0.147-1.612-0.153-0.573-0.302-0.97-0.729-1.189-1.28v0c-0.386-0.966-0.146-2.153 0.72-3.561v0c0.686-1.157 1.906-2.086 3.658-2.785v0c1.653-0.66 3.324-0.736 5.013-0.226 1.689 0.51 2.884 1.64 3.584 3.392v0c0.344 0.861 0.797 2.076 1.359 3.646 0.566 1.561 0.985 2.682 1.258 3.364v0c0.7 1.752 1.45 2.454 2.251 2.105v0c0.47-0.188 0.755-0.499 0.855-0.934 0.099-0.434 0.08-1.094-0.059-1.979zM195.898 265.201v0l-1.851-4.633c-0.884 0.446-1.693 0.866-2.426 1.259-0.737 0.402-1.341 0.812-1.813 1.23-0.472 0.418-0.769 0.924-0.89 1.519-0.128 0.597-0.025 1.313 0.309 2.148v0c0.45 1.127 1.061 1.838 1.832 2.133 0.774 0.301 1.591 0.28 2.451-0.064v0c1.362-0.544 2.158-1.741 2.388-3.592z" fill="#000000" data-fill-palette-color="primary"/><path d="M216.113 238.359v0l0.294 0.531c-1.205 0.926-1.56 1.711-1.065 2.356v0c0.106 0.137 0.26 0.267 0.463 0.389v0l10.468 6.144-3.529-11.474c-0.065-0.227-0.159-0.42-0.281-0.579v0c-0.191-0.248-0.464-0.358-0.82-0.328-0.354 0.02-0.646 0.101-0.873 0.242-0.233 0.145-0.545 0.352-0.937 0.618v0l-0.302-0.524c0.634-0.378 1.499-0.987 2.593-1.828v0c1.184-0.91 2.107-1.673 2.768-2.29v0l0.302 0.525c-0.761 0.585-1.202 1.133-1.321 1.645-0.115 0.517-0.052 1.234 0.188 2.15v0l4.391 14.532-1.776 1.364-14.203-7.739c-0.621-0.338-1.183-0.457-1.686-0.357-0.508 0.105-1.17 0.436-1.985 0.995v0l-0.302-0.524c2.326-1.601 3.89-2.711 4.694-3.328v0c1.163-0.893 2.136-1.733 2.919-2.52z" fill="#000000" data-fill-palette-color="primary"/><path d="M242.696 221.614v0l4.54-6.107c-0.368-0.31-0.719-0.591-1.055-0.843v0c-0.698-0.525-1.302-0.891-1.813-1.1v0c-0.861-0.364-1.727-0.443-2.598-0.238-0.88 0.206-1.625 0.714-2.233 1.523v0c-0.625 0.831-0.641 1.841-0.049 3.028 0.587 1.183 1.656 2.429 3.208 3.737zM250.006 212.886l-6.823 9.145 0.744 0.559c1.62 1.218 3.307 2.019 5.061 2.403 1.754 0.384 3.054 0.014 3.899-1.11v0c0.985-1.311 1.383-2.634 1.194-3.969-0.191-1.344-0.591-2.475-1.203-3.393v0l1.381-0.439c0.606 0.981 0.944 2.256 1.014 3.827 0.07 1.571-0.487 3.145-1.673 4.722v0c-1.438 1.913-3.232 3.058-5.383 3.435-2.147 0.371-4.358-0.298-6.634-2.009v0c-1.327-0.997-2.33-2.093-3.008-3.287-0.673-1.19-0.998-2.351-0.973-3.483 0.021-1.127 0.187-2.157 0.497-3.091 0.312-0.925 0.764-1.782 1.357-2.571v0c0.913-1.215 2.089-2.103 3.529-2.664 1.44-0.552 3.014-0.437 4.719 0.345v0c0.512 0.251 0.994 0.547 1.447 0.887v0c0.245 0.184 0.53 0.415 0.855 0.693z" fill="#000000" data-fill-palette-color="primary"/><path d="M251.767 195.252l-0.625-0.241c0.116-0.227 0.224-0.471 0.325-0.732v0c0.568-1.474 0.904-3.127 1.009-4.958v0l4.023 1.185c-1.888-2.628-2.481-4.892-1.777-6.793v0c0.345-0.896 0.795-1.637 1.349-2.223 0.561-0.584 1.135-0.991 1.724-1.222 0.58-0.227 1.207-0.353 1.882-0.379 0.674-0.026 1.288 0.014 1.84 0.12 0.546 0.103 1.083 0.257 1.612 0.46v0l8.081 3.112c0.268 0.103 0.631-0.118 1.091-0.662 0.468-0.548 0.794-1.059 0.976-1.532v0l0.634 0.245c-1.129 2.616-1.815 4.241-2.059 4.875v0c-0.515 1.337-0.917 2.54-1.208 3.607v0l-0.634-0.244c0.179-0.538 0.279-1.15 0.299-1.835 0.027-0.682-0.081-1.07-0.323-1.164v0c0.01-0.025-2.654-1.065-7.992-3.121v0c-1.443-0.556-2.711-0.751-3.803-0.586-1.088 0.174-1.829 0.771-2.222 1.791v0c-0.326 0.846-0.268 1.911 0.173 3.195 0.441 1.284 1.181 2.341 2.219 3.169v0l8.79 3.386c0.423 0.163 1.067-0.646 1.932-2.428v0l0.634 0.244c-0.495 1.045-1.087 2.46-1.774 4.246v0c-0.659 1.711-1.146 3.095-1.46 4.153v0l-0.635-0.245c0.201-0.523 0.308-1.106 0.321-1.751 0.007-0.648-0.124-1.023-0.391-1.126v0c-1.577-0.672-3.682-1.514-6.313-2.528v0c-2.501-0.963-4.561-1.725-6.182-2.284v0c-0.459 0.395-0.964 1.15-1.516 2.266z" fill="#000000" data-fill-palette-color="primary"/></g></svg></g></svg></g></svg></g></svg></g><defs/></svg>